Coordinates
version=1
nRows=10
nColumns=40
inDegrees=yes

Units are S.I. units (second, meters, Newtons, ...)
Angles are in degrees.

endheader
time	pelvis_tilt	pelvis_list	pelvis_rotation	pelvis_tx	pelvis_ty	pelvis_tz	hip_flexion_r	hip_adduction_r	hip_rotation_r	knee_angle_r	knee_angle_r_beta	ankle_angle_r	subtalar_angle_r	mtp_angle_r	hip_flexion_l	hip_adduction_l	hip_rotation_l	knee_angle_l	knee_angle_l_beta	ankle_angle_l	subtalar_angle_l	mtp_angle_l	lumbar_extension	lumbar_bending	lumbar_rotation	arm_flex_r	arm_add_r	arm_rot_r	elbow_flex_r	pro_sup_r	wrist_flex_r	wrist_dev_r	arm_flex_l	arm_add_l	arm_rot_l	elbow_flex_l	pro_sup_l	wrist_flex_l	wrist_dev_l
     42.09864286	     -6.59054352	     -2.12381030	     -5.06589410	      0.92458187	      0.92178816	      0.44908730	     27.85727877	     -1.13235997	    -13.97585823	     10.72401717	     10.72401717	      1.77467658	      9.09511859	      9.05723593	      2.97355456	     -2.43581347	    -11.03710737	     11.93797739	     11.93797739	     16.68376743	     -3.39105435	     -6.76189020	     -9.85687758	      1.24610038	      0.87156859	    -16.33917413	    -14.77644565	     -3.45944709	     31.38166502	     46.87802639	      0.00000000	      0.00000000	     12.47083884	    -18.58606696	    -17.58272874	     75.53811186	     47.71404555	      0.00000000	      0.00000000
     42.11228571	     -6.53280731	     -2.00177500	     -5.00931312	      0.92664488	      0.92058624	      0.45115738	     27.47916880	     -1.07016074	    -13.28528112	     11.32291052	     11.32291052	     -0.08339381	      7.56605561	      4.15930431	      2.22283091	     -2.42421914	    -11.34355211	     11.89032163	     11.89032163	     17.61700326	     -2.50140800	     -5.80493061	     -9.69086539	      1.29552475	      0.56460918	    -16.19155478	    -14.69675495	     -3.31175293	     32.49322662	     46.75314860	      0.00000000	      0.00000000	     11.53249921	    -18.26784671	    -18.21009213	     76.73881682	     47.79667878	      0.00000000	      0.00000000
     42.12592857	     -6.48585847	     -1.97485229	     -4.92817125	      0.92875264	      0.91958262	      0.45321421	     27.35506667	     -1.08141268	    -13.00050948	     12.62639236	     12.62639236	     -0.22101678	      6.75875307	      3.42698997	      1.47739152	     -2.47631477	    -11.33476553	     11.77392457	     11.77392457	     18.00511992	     -2.30522789	     -5.68445114	     -9.45345492	      1.49153680	      0.60793599	    -15.81401081	    -14.57021055	     -3.20586226	     32.68748850	     46.73131894	      0.00000000	      0.00000000	     11.17108920	    -17.88228055	    -18.10808450	     76.61463916	     47.78835062	      0.00000000	      0.00000000
     42.13957143	     -6.41404083	     -1.96814705	     -4.81548924	      0.93091415	      0.91869069	      0.45542335	     27.06068160	     -0.92446211	    -12.00231522	     13.55371899	     13.55371899	     -1.28492802	      4.65753084	      0.04141450	      0.93448832	     -2.64503424	    -11.45411935	     12.17037089	     12.17037089	     19.01621105	     -1.73779017	     -4.36051398	     -9.27804955	      1.72161134	      0.39556747	    -15.34107595	    -14.60076496	     -2.65374816	     33.45655834	     46.61385377	      0.00000000	      0.00000000	     10.40337663	    -17.41788496	    -18.38459099	     76.93941779	     47.82629181	      0.00000000	      0.00000000
     42.15321429	     -6.33088685	     -2.01405151	     -4.71236887	      0.93298020	      0.91809215	      0.45764526	     26.96350454	     -0.87097380	    -11.66065309	     14.95439207	     14.95439207	     -1.04523966	      3.78707899	     -0.60037288	      0.36890191	     -2.83757862	    -11.36895265	     12.45427919	     12.45427919	     19.34985057	     -1.74848055	     -4.19901732	     -9.13018358	      2.02628276	      0.42926865	    -14.72159867	    -14.54655303	     -2.56934462	     33.77254115	     46.59201829	      0.00000000	      0.00000000	      9.85860325	    -16.94360479	    -18.25448845	     76.69408277	     47.81210065	      0.00000000	      0.00000000
     42.16685714	     -6.27855271	     -2.04343480	     -4.59405869	      0.93491053	      0.91767789	      0.45996726	     26.92090058	     -0.76036377	    -10.94556798	     16.29211671	     16.29211671	     -0.68595174	      2.33044759	     -1.31201235	      0.07561623	     -3.07437725	    -11.22158505	     13.16908724	     13.16908724	     19.74296391	     -1.91951922	     -3.83239942	     -8.97636784	      2.31313152	      0.36334099	    -13.94021854	    -14.51289337	     -2.48044821	     34.26797062	     46.56162233	      0.00000000	      0.00000000	      9.18284606	    -16.46465998	    -18.20506718	     76.41152081	     47.80266557	      0.00000000	      0.00000000
     42.18050000	     -6.10027962	     -2.18392412	     -4.49994120	      0.93699269	      0.91799694	      0.46236485	     26.43941942	     -0.54661827	    -10.64655524	     17.06181583	     17.06181583	     -0.15778512	      1.84118411	     -1.68727294	     -0.40129777	     -3.41741804	    -11.07714544	     13.78955715	     13.78955715	     19.83862749	     -2.16945016	     -3.74057526	     -8.98051955	      2.71698450	      0.54423340	    -13.07070677	    -14.44754990	     -2.45746973	     34.64282395	     46.54915486	      0.00000000	      0.00000000	      8.46888147	    -15.62059747	    -17.92980541	     76.11170849	     47.77391447	      0.00000000	      0.00000000
     42.19414286	     -6.14484580	     -2.27233940	     -4.32719478	      0.93847857	      0.91792298	      0.46490005	     26.52416698	     -0.27385804	     -9.67134359	     18.27192507	     18.27192507	      0.43958592	     -0.26347451	     -2.22445121	      0.05736821	     -3.87756570	    -10.73895220	     15.66316680	     15.66316680	     20.30362343	     -2.78191421	     -3.20326416	     -8.77742383	      3.06272294	      0.19584684	    -11.98473434	    -14.53662607	     -2.41284557	     35.46519474	     46.50737588	      0.00000000	      0.00000000	      7.57446764	    -15.27874873	    -18.07053570	     75.58538394	     47.77327654	      0.00000000	      0.00000000
     42.20778571	     -6.00706556	     -2.42835326	     -4.17975538	      0.94009108	      0.91861624	      0.46751752	     26.10943672	      0.03418526	     -9.17630837	     18.93064349	     18.93064349	      1.12856304	     -1.31640869	     -2.56619427	      0.29573296	     -4.40262735	    -10.44823181	     17.47841723	     17.47841723	     20.47882942	     -3.34097424	     -2.79944576	     -8.81643348	      3.44327226	      0.09741681	    -10.83155578	    -14.59596474	     -2.33252667	     36.24090557	     46.46494311	      0.00000000	      0.00000000	      6.69374828	    -14.63071387	    -18.08218299	     75.09005022	     47.76431154	      0.00000000	      0.00000000
     42.22142857	     -5.87449270	     -2.57179408	     -4.00833744	      0.94157866	      0.91951066	      0.47016186	     25.61221124	      0.30231353	     -8.92228586	     19.40408205	     19.40408205	      1.90099349	     -1.96431234	     -2.81969261	      0.77131968	     -4.95187560	    -10.04178165	     19.65960074	     19.65960074	     20.33068825	     -4.17416578	     -2.85889812	     -8.84909506	      3.79660549	      0.01133787	     -9.58180961	    -14.62092903	     -2.32528535	     36.99958843	     46.43279110	      0.00000000	      0.00000000	      5.81886240	    -13.99157007	    -17.91823370	     74.45966035	     47.73945926	      0.00000000	      0.00000000
